<svg width="113" height="57" viewBox="0 0 113 57" fill="none" xmlns="http://www.w3.org/2000/svg">
<path d="M6.288 47.696C6.328 47.632 6.384 47.6 6.456 47.6H7.56C7.6 47.6 7.632 47.616 7.656 47.648C7.688 47.672 7.704 47.704 7.704 47.744V55.856C7.704 55.896 7.688 55.932 7.656 55.964C7.632 55.988 7.6 56 7.56 56H6.456C6.416 56 6.38 55.988 6.348 55.964C6.324 55.932 6.312 55.896 6.312 55.856V50.132C6.312 50.108 6.3 50.092 6.276 50.084C6.26 50.076 6.248 50.084 6.24 50.108L4.74 52.412C4.7 52.476 4.644 52.508 4.572 52.508H4.02C3.948 52.508 3.892 52.476 3.852 52.412L2.34 50.12C2.332 50.096 2.316 50.088 2.292 50.096C2.276 50.104 2.268 50.12 2.268 50.144V55.856C2.268 55.896 2.252 55.932 2.22 55.964C2.196 55.988 2.164 56 2.124 56H1.02C0.98 56 0.944 55.988 0.912 55.964C0.888 55.932 0.876 55.896 0.876 55.856V47.744C0.876 47.704 0.888 47.672 0.912 47.648C0.944 47.616 0.98 47.6 1.02 47.6H2.124C2.196 47.6 2.252 47.632 2.292 47.696L4.248 50.66C4.264 50.676 4.28 50.684 4.296 50.684C4.312 50.684 4.324 50.676 4.332 50.66L6.288 47.696ZM12.1181 56.12C11.5181 56.12 10.9861 56 10.5221 55.76C10.0581 55.512 9.69812 55.164 9.44212 54.716C9.19412 54.268 9.07012 53.752 9.07012 53.168V50.432C9.07012 49.856 9.19812 49.348 9.45412 48.908C9.71012 48.46 10.0661 48.116 10.5221 47.876C10.9861 47.628 11.5181 47.504 12.1181 47.504C12.7261 47.504 13.2581 47.628 13.7141 47.876C14.1781 48.116 14.5381 48.46 14.7941 48.908C15.0501 49.348 15.1781 49.856 15.1781 50.432V53.168C15.1781 53.752 15.0501 54.268 14.7941 54.716C14.5381 55.164 14.1781 55.512 13.7141 55.76C13.2581 56 12.7261 56.12 12.1181 56.12ZM12.1181 54.92C12.6221 54.92 13.0261 54.764 13.3301 54.452C13.6341 54.14 13.7861 53.728 13.7861 53.216V50.42C13.7861 49.9 13.6341 49.484 13.3301 49.172C13.0261 48.86 12.6221 48.704 12.1181 48.704C11.6221 48.704 11.2221 48.86 10.9181 49.172C10.6141 49.484 10.4621 49.9 10.4621 50.42V53.216C10.4621 53.728 10.6141 54.14 10.9181 54.452C11.2221 54.764 11.6221 54.92 12.1181 54.92ZM18.5786 56C18.4986 56 18.4466 55.96 18.4226 55.88L15.9026 47.768L15.8906 47.72C15.8906 47.64 15.9346 47.6 16.0226 47.6H17.2106C17.2986 47.6 17.3546 47.64 17.3786 47.72L19.1786 53.984C19.1866 54.008 19.1986 54.02 19.2146 54.02C19.2306 54.02 19.2426 54.008 19.2506 53.984L21.0386 47.72C21.0626 47.64 21.1186 47.6 21.2066 47.6H22.3706C22.4186 47.6 22.4546 47.616 22.4786 47.648C22.5026 47.68 22.5066 47.72 22.4906 47.768L19.9346 55.88C19.9106 55.96 19.8586 56 19.7786 56H18.5786ZM23.6948 56C23.6548 56 23.6188 55.988 23.5868 55.964C23.5628 55.932 23.5508 55.896 23.5508 55.856V47.744C23.5508 47.704 23.5628 47.672 23.5868 47.648C23.6188 47.616 23.6548 47.6 23.6948 47.6H24.7988C24.8388 47.6 24.8708 47.616 24.8948 47.648C24.9268 47.672 24.9428 47.704 24.9428 47.744V55.856C24.9428 55.896 24.9268 55.932 24.8948 55.964C24.8708 55.988 24.8388 56 24.7988 56H23.6948ZM32.1995 48.656C32.1995 48.696 32.1835 48.732 32.1515 48.764C32.1275 48.788 32.0955 48.8 32.0555 48.8H27.9635C27.9235 48.8 27.9035 48.82 27.9035 48.86V51.104C27.9035 51.144 27.9235 51.164 27.9635 51.164H30.7115C30.7515 51.164 30.7835 51.18 30.8075 51.212C30.8395 51.236 30.8555 51.268 30.8555 51.308V52.22C30.8555 52.26 30.8395 52.296 30.8075 52.328C30.7835 52.352 30.7515 52.364 30.7115 52.364H27.9635C27.9235 52.364 27.9035 52.384 27.9035 52.424V54.74C27.9035 54.78 27.9235 54.8 27.9635 54.8H32.0555C32.0955 54.8 32.1275 54.816 32.1515 54.848C32.1835 54.872 32.1995 54.904 32.1995 54.944V55.856C32.1995 55.896 32.1835 55.932 32.1515 55.964C32.1275 55.988 32.0955 56 32.0555 56H26.6555C26.6155 56 26.5795 55.988 26.5475 55.964C26.5235 55.932 26.5115 55.896 26.5115 55.856V47.744C26.5115 47.704 26.5235 47.672 26.5475 47.648C26.5795 47.616 26.6155 47.6 26.6555 47.6H32.0555C32.0955 47.6 32.1275 47.616 32.1515 47.648C32.1835 47.672 32.1995 47.704 32.1995 47.744V48.656ZM36.145 56.096C35.521 56.096 34.977 55.996 34.513 55.796C34.049 55.596 33.689 55.316 33.433 54.956C33.185 54.596 33.061 54.172 33.061 53.684V53.384C33.061 53.344 33.073 53.312 33.097 53.288C33.129 53.256 33.165 53.24 33.205 53.24H34.273C34.313 53.24 34.345 53.256 34.369 53.288C34.401 53.312 34.417 53.344 34.417 53.384V53.612C34.417 53.98 34.581 54.288 34.909 54.536C35.237 54.776 35.685 54.896 36.253 54.896C36.741 54.896 37.109 54.792 37.357 54.584C37.605 54.376 37.729 54.108 37.729 53.78C37.729 53.556 37.661 53.368 37.525 53.216C37.389 53.056 37.193 52.912 36.937 52.784C36.689 52.656 36.313 52.496 35.809 52.304C35.241 52.096 34.781 51.9 34.429 51.716C34.077 51.532 33.781 51.284 33.541 50.972C33.309 50.652 33.193 50.256 33.193 49.784C33.193 49.08 33.449 48.524 33.961 48.116C34.473 47.708 35.157 47.504 36.013 47.504C36.613 47.504 37.141 47.608 37.597 47.816C38.061 48.024 38.421 48.316 38.677 48.692C38.933 49.06 39.061 49.488 39.061 49.976V50.18C39.061 50.22 39.045 50.256 39.013 50.288C38.989 50.312 38.957 50.324 38.917 50.324H37.837C37.797 50.324 37.761 50.312 37.729 50.288C37.705 50.256 37.693 50.22 37.693 50.18V50.048C37.693 49.672 37.537 49.356 37.225 49.1C36.921 48.836 36.497 48.704 35.953 48.704C35.513 48.704 35.169 48.796 34.921 48.98C34.681 49.164 34.561 49.424 34.561 49.76C34.561 50 34.625 50.196 34.753 50.348C34.881 50.5 35.073 50.64 35.329 50.768C35.585 50.888 35.981 51.044 36.517 51.236C37.085 51.452 37.537 51.648 37.873 51.824C38.217 52 38.509 52.248 38.749 52.568C38.997 52.88 39.121 53.272 39.121 53.744C39.121 54.464 38.853 55.036 38.317 55.46C37.789 55.884 37.065 56.096 36.145 56.096ZM51.4956 55.82C51.5196 55.852 51.5316 55.884 51.5316 55.916C51.5316 55.972 51.4916 56 51.4116 56H50.1756C50.1036 56 50.0436 55.972 49.9956 55.916L49.4556 55.316C49.4316 55.292 49.4036 55.292 49.3716 55.316C48.6356 55.836 47.8276 56.096 46.9476 56.096C46.2116 56.096 45.6036 55.924 45.1236 55.58C44.6516 55.228 44.4156 54.716 44.4156 54.044C44.4156 53.5 44.5636 53.04 44.8596 52.664C45.1636 52.288 45.5716 51.94 46.0836 51.62C46.1316 51.588 46.1356 51.56 46.0956 51.536C45.6716 51.024 45.3916 50.628 45.2556 50.348C45.1196 50.068 45.0516 49.776 45.0516 49.472C45.0516 49.104 45.1476 48.772 45.3396 48.476C45.5316 48.172 45.7996 47.936 46.1436 47.768C46.4956 47.592 46.8956 47.504 47.3436 47.504C47.8076 47.504 48.2196 47.592 48.5796 47.768C48.9396 47.936 49.2196 48.176 49.4196 48.488C49.6276 48.8 49.7316 49.16 49.7316 49.568C49.7316 50.056 49.5876 50.484 49.2996 50.852C49.0116 51.22 48.6236 51.556 48.1356 51.86C48.0956 51.884 48.0916 51.912 48.1236 51.944C48.4916 52.376 48.9396 52.884 49.4676 53.468C49.4916 53.5 49.5196 53.5 49.5516 53.468C49.7436 53.26 49.9916 52.94 50.2956 52.508C50.3436 52.42 50.4076 52.404 50.4876 52.46L51.3036 52.928C51.3996 52.984 51.4156 53.048 51.3516 53.12C51.0156 53.632 50.6836 54.072 50.3556 54.44L50.3436 54.464C50.3436 54.496 50.3596 54.528 50.3916 54.56C50.6796 54.896 50.9596 55.216 51.2316 55.52C51.2876 55.592 51.3356 55.652 51.3756 55.7C51.4236 55.748 51.4636 55.788 51.4956 55.82ZM47.3796 48.776C47.0996 48.776 46.8716 48.852 46.6956 49.004C46.5276 49.156 46.4436 49.356 46.4436 49.604C46.4436 49.74 46.4916 49.892 46.5876 50.06C46.6836 50.228 46.8876 50.5 47.1996 50.876C47.2236 50.908 47.2516 50.912 47.2836 50.888C47.6276 50.672 47.8876 50.464 48.0636 50.264C48.2476 50.056 48.3396 49.832 48.3396 49.592C48.3396 49.344 48.2516 49.148 48.0756 49.004C47.8996 48.852 47.6676 48.776 47.3796 48.776ZM46.9596 54.92C47.4556 54.92 47.9796 54.74 48.5316 54.38C48.5636 54.348 48.5636 54.32 48.5316 54.296C48.4916 54.256 48.4516 54.212 48.4116 54.164C48.3716 54.116 48.3316 54.068 48.2916 54.02C48.1876 53.9 48.0156 53.704 47.7756 53.432L47.4996 53.12C47.3716 52.984 47.2156 52.808 47.0316 52.592C47.0156 52.568 46.9876 52.564 46.9476 52.58C46.5876 52.812 46.3116 53.04 46.1196 53.264C45.9276 53.488 45.8316 53.74 45.8316 54.02C45.8316 54.292 45.9316 54.512 46.1316 54.68C46.3396 54.84 46.6156 54.92 46.9596 54.92ZM60.6116 47.6C60.6516 47.6 60.6836 47.616 60.7076 47.648C60.7396 47.672 60.7556 47.704 60.7556 47.744V48.668C60.7556 48.708 60.7396 48.744 60.7076 48.776C60.6836 48.8 60.6516 48.812 60.6116 48.812H58.4036C58.3636 48.812 58.3436 48.832 58.3436 48.872V55.856C58.3436 55.896 58.3276 55.932 58.2956 55.964C58.2716 55.988 58.2396 56 58.1996 56H57.0956C57.0556 56 57.0196 55.988 56.9876 55.964C56.9636 55.932 56.9516 55.896 56.9516 55.856V48.872C56.9516 48.832 56.9316 48.812 56.8916 48.812H54.7676C54.7276 48.812 54.6916 48.8 54.6596 48.776C54.6356 48.744 54.6236 48.708 54.6236 48.668V47.744C54.6236 47.704 54.6356 47.672 54.6596 47.648C54.6916 47.616 54.7276 47.6 54.7676 47.6H60.6116ZM64.0328 56C63.9528 56 63.9008 55.96 63.8768 55.88L61.3568 47.768L61.3448 47.72C61.3448 47.64 61.3888 47.6 61.4768 47.6H62.6648C62.7528 47.6 62.8088 47.64 62.8328 47.72L64.6328 53.984C64.6408 54.008 64.6528 54.02 64.6688 54.02C64.6848 54.02 64.6968 54.008 64.7048 53.984L66.4928 47.72C66.5168 47.64 66.5728 47.6 66.6608 47.6H67.8248C67.8728 47.6 67.9088 47.616 67.9328 47.648C67.9568 47.68 67.9608 47.72 67.9448 47.768L65.3888 55.88C65.3648 55.96 65.3128 56 65.2328 56H64.0328ZM75.9434 56C75.8634 56 75.8074 55.964 75.7754 55.892L74.1914 52.436C74.1754 52.404 74.1514 52.388 74.1194 52.388H72.6794C72.6394 52.388 72.6194 52.408 72.6194 52.448V55.856C72.6194 55.896 72.6034 55.932 72.5714 55.964C72.5474 55.988 72.5154 56 72.4754 56H71.3714C71.3314 56 71.2954 55.988 71.2634 55.964C71.2394 55.932 71.2274 55.896 71.2274 55.856V47.744C71.2274 47.704 71.2394 47.672 71.2634 47.648C71.2954 47.616 71.3314 47.6 71.3714 47.6H74.6714C75.1594 47.6 75.5914 47.704 75.9674 47.912C76.3434 48.112 76.6354 48.4 76.8434 48.776C77.0514 49.144 77.1554 49.568 77.1554 50.048C77.1554 50.6 77.0114 51.072 76.7234 51.464C76.4434 51.848 76.0514 52.116 75.5474 52.268C75.5314 52.268 75.5194 52.276 75.5114 52.292C75.5034 52.308 75.5034 52.324 75.5114 52.34L77.2034 55.832C77.2194 55.864 77.2274 55.888 77.2274 55.904C77.2274 55.968 77.1834 56 77.0954 56H75.9434ZM72.6794 48.8C72.6394 48.8 72.6194 48.82 72.6194 48.86V51.248C72.6194 51.288 72.6394 51.308 72.6794 51.308H74.4794C74.8634 51.308 75.1714 51.196 75.4034 50.972C75.6434 50.74 75.7634 50.436 75.7634 50.06C75.7634 49.684 75.6434 49.38 75.4034 49.148C75.1714 48.916 74.8634 48.8 74.4794 48.8H72.6794ZM84.0948 48.656C84.0948 48.696 84.0788 48.732 84.0468 48.764C84.0228 48.788 83.9908 48.8 83.9508 48.8H79.8588C79.8188 48.8 79.7988 48.82 79.7988 48.86V51.104C79.7988 51.144 79.8188 51.164 79.8588 51.164H82.6068C82.6468 51.164 82.6788 51.18 82.7028 51.212C82.7348 51.236 82.7508 51.268 82.7508 51.308V52.22C82.7508 52.26 82.7348 52.296 82.7028 52.328C82.6788 52.352 82.6468 52.364 82.6068 52.364H79.8588C79.8188 52.364 79.7988 52.384 79.7988 52.424V54.74C79.7988 54.78 79.8188 54.8 79.8588 54.8H83.9508C83.9908 54.8 84.0228 54.816 84.0468 54.848C84.0788 54.872 84.0948 54.904 84.0948 54.944V55.856C84.0948 55.896 84.0788 55.932 84.0468 55.964C84.0228 55.988 83.9908 56 83.9508 56H78.5508C78.5108 56 78.4748 55.988 78.4428 55.964C78.4188 55.932 78.4068 55.896 78.4068 55.856V47.744C78.4068 47.704 78.4188 47.672 78.4428 47.648C78.4748 47.616 78.5108 47.6 78.5508 47.6H83.9508C83.9908 47.6 84.0228 47.616 84.0468 47.648C84.0788 47.672 84.0948 47.704 84.0948 47.744V48.656ZM87.6058 56C87.5258 56 87.4738 55.96 87.4498 55.88L84.9298 47.768L84.9178 47.72C84.9178 47.64 84.9618 47.6 85.0498 47.6H86.2378C86.3258 47.6 86.3818 47.64 86.4058 47.72L88.2058 53.984C88.2138 54.008 88.2258 54.02 88.2418 54.02C88.2578 54.02 88.2698 54.008 88.2778 53.984L90.0658 47.72C90.0898 47.64 90.1458 47.6 90.2338 47.6H91.3978C91.4458 47.6 91.4818 47.616 91.5058 47.648C91.5298 47.68 91.5338 47.72 91.5178 47.768L88.9618 55.88C88.9378 55.96 88.8858 56 88.8058 56H87.6058ZM92.722 56C92.682 56 92.646 55.988 92.614 55.964C92.59 55.932 92.578 55.896 92.578 55.856V47.744C92.578 47.704 92.59 47.672 92.614 47.648C92.646 47.616 92.682 47.6 92.722 47.6H93.826C93.866 47.6 93.898 47.616 93.922 47.648C93.954 47.672 93.97 47.704 93.97 47.744V55.856C93.97 55.896 93.954 55.932 93.922 55.964C93.898 55.988 93.866 56 93.826 56H92.722ZM101.227 48.656C101.227 48.696 101.211 48.732 101.179 48.764C101.155 48.788 101.123 48.8 101.083 48.8H96.9907C96.9507 48.8 96.9307 48.82 96.9307 48.86V51.104C96.9307 51.144 96.9507 51.164 96.9907 51.164H99.7387C99.7787 51.164 99.8107 51.18 99.8347 51.212C99.8667 51.236 99.8827 51.268 99.8827 51.308V52.22C99.8827 52.26 99.8667 52.296 99.8347 52.328C99.8107 52.352 99.7787 52.364 99.7387 52.364H96.9907C96.9507 52.364 96.9307 52.384 96.9307 52.424V54.74C96.9307 54.78 96.9507 54.8 96.9907 54.8H101.083C101.123 54.8 101.155 54.816 101.179 54.848C101.211 54.872 101.227 54.904 101.227 54.944V55.856C101.227 55.896 101.211 55.932 101.179 55.964C101.155 55.988 101.123 56 101.083 56H95.6827C95.6427 56 95.6067 55.988 95.5747 55.964C95.5507 55.932 95.5387 55.896 95.5387 55.856V47.744C95.5387 47.704 95.5507 47.672 95.5747 47.648C95.6067 47.616 95.6427 47.6 95.6827 47.6H101.083C101.123 47.6 101.155 47.616 101.179 47.648C101.211 47.672 101.227 47.704 101.227 47.744V48.656ZM104.354 56C104.266 56 104.21 55.96 104.186 55.88L102.002 47.756L101.99 47.708C101.99 47.636 102.034 47.6 102.122 47.6H103.298C103.386 47.6 103.442 47.64 103.466 47.72L104.834 53.192C104.842 53.216 104.854 53.228 104.87 53.228C104.886 53.228 104.898 53.216 104.906 53.192L106.214 47.72C106.238 47.64 106.29 47.6 106.37 47.6H107.522C107.61 47.6 107.666 47.64 107.69 47.72L109.082 53.204C109.09 53.228 109.102 53.24 109.118 53.24C109.134 53.24 109.146 53.228 109.154 53.204L110.498 47.72C110.522 47.64 110.578 47.6 110.666 47.6H111.782C111.894 47.6 111.938 47.652 111.914 47.756L109.838 55.88C109.814 55.96 109.758 56 109.67 56H108.554C108.466 56 108.41 55.96 108.386 55.88L106.982 50.156C106.974 50.132 106.962 50.12 106.946 50.12C106.93 50.112 106.918 50.124 106.91 50.156L105.566 55.88C105.542 55.96 105.49 56 105.41 56H104.354Z" fill="#94A3B8"/>
<path d="M19.98 10.8C20.1 10.8 20.196 10.848 20.268 10.944C20.364 11.016 20.412 11.112 20.412 11.232V15.516C20.412 15.636 20.364 15.744 20.268 15.84C20.196 15.912 20.1 15.948 19.98 15.948H13.68C13.56 15.948 13.5 16.008 13.5 16.128V35.568C13.5 35.688 13.452 35.796 13.356 35.892C13.284 35.964 13.188 36 13.068 36H7.956C7.836 36 7.728 35.964 7.632 35.892C7.56 35.796 7.524 35.688 7.524 35.568V16.128C7.524 16.008 7.464 15.948 7.344 15.948H1.26C1.14 15.948 1.032 15.912 0.936 15.84C0.864 15.744 0.828 15.636 0.828 15.516V11.232C0.828 11.112 0.864 11.016 0.936 10.944C1.032 10.848 1.14 10.8 1.26 10.8H19.98ZM38.9824 11.088C39.0784 10.896 39.2464 10.8 39.4864 10.8H44.5624C44.6824 10.8 44.7784 10.848 44.8504 10.944C44.9464 11.016 44.9944 11.112 44.9944 11.232V35.568C44.9944 35.688 44.9464 35.796 44.8504 35.892C44.7784 35.964 44.6824 36 44.5624 36H39.4504C39.3304 36 39.2224 35.964 39.1264 35.892C39.0544 35.796 39.0184 35.688 39.0184 35.568V21.096C39.0184 21 38.9944 20.952 38.9464 20.952C38.8984 20.952 38.8504 20.988 38.8024 21.06L35.7064 26.028C35.6104 26.22 35.4424 26.316 35.2024 26.316H32.6464C32.4064 26.316 32.2384 26.22 32.1424 26.028L29.0104 21.024C28.9624 20.952 28.9144 20.916 28.8664 20.916C28.8184 20.916 28.7944 20.964 28.7944 21.06V35.568C28.7944 35.688 28.7464 35.796 28.6504 35.892C28.5784 35.964 28.4824 36 28.3624 36H23.2504C23.1304 36 23.0224 35.964 22.9264 35.892C22.8544 35.796 22.8184 35.688 22.8184 35.568V11.232C22.8184 11.112 22.8544 11.016 22.9264 10.944C23.0224 10.848 23.1304 10.8 23.2504 10.8H28.3264C28.5424 10.8 28.7104 10.896 28.8304 11.088L33.8344 18.936C33.9064 19.08 33.9784 19.08 34.0504 18.936L38.9824 11.088ZM64.0696 22.896C63.9256 22.968 63.9256 23.04 64.0696 23.112C66.2536 24.264 67.3456 26.184 67.3456 28.872C67.3456 31.272 66.5176 33.06 64.8616 34.236C63.2056 35.412 61.0336 36 58.3456 36H48.7696C48.6496 36 48.5416 35.964 48.4456 35.892C48.3736 35.796 48.3376 35.688 48.3376 35.568V11.232C48.3376 11.112 48.3736 11.016 48.4456 10.944C48.5416 10.848 48.6496 10.8 48.7696 10.8H58.0576C60.9856 10.8 63.1936 11.352 64.6816 12.456C66.1936 13.56 66.9496 15.348 66.9496 17.82C66.9496 20.172 65.9896 21.864 64.0696 22.896ZM54.4936 15.912C54.3736 15.912 54.3136 15.972 54.3136 16.092V20.628C54.3136 20.748 54.3736 20.808 54.4936 20.808H58.0576C59.0416 20.808 59.7976 20.604 60.3256 20.196C60.8536 19.764 61.1176 19.164 61.1176 18.396C61.1176 17.604 60.8536 16.992 60.3256 16.56C59.7976 16.128 59.0416 15.912 58.0576 15.912H54.4936ZM58.3456 30.852C59.3056 30.852 60.0496 30.636 60.5776 30.204C61.1056 29.748 61.3696 29.1 61.3696 28.26C61.3696 27.444 61.1056 26.82 60.5776 26.388C60.0736 25.932 59.3296 25.704 58.3456 25.704H54.4936C54.3736 25.704 54.3136 25.764 54.3136 25.884V30.672C54.3136 30.792 54.3736 30.852 54.4936 30.852H58.3456Z" fill="#475569"/>
</svg>
