<svg width="120" height="52" viewBox="0 0 120 52" fill="none" xmlns="http://www.w3.org/2000/svg">
<path d="M43.1006 2.37994H9.40285C5.67998 2.37994 2.64703 5.40113 2.64703 9.14646V42.8537C2.64703 46.599 5.67998 49.6202 9.40285 49.6202H43.1006C46.8234 49.6202 49.8563 46.599 49.8563 42.8537V9.14646C49.8563 5.40113 46.8234 2.37994 43.1006 2.37994Z" stroke="#0EA5E9" stroke-width="3.5" stroke-linecap="round" stroke-linejoin="round"/>
<path d="M15.4788 4.44812V47.552" stroke="#0EA5E9" stroke-width="3.5" stroke-linecap="round" stroke-linejoin="round"/>
<path d="M37.0245 4.44812V47.552" stroke="#0EA5E9" stroke-width="3.5" stroke-linecap="round" stroke-linejoin="round"/>
<path d="M4.70587 26H47.7975" stroke="#0EA5E9" stroke-width="3.5" stroke-linecap="round" stroke-linejoin="round"/>
<path d="M4.70587 15.2242H15.4788" stroke="#0EA5E9" stroke-width="3.5" stroke-linecap="round" stroke-linejoin="round"/>
<path d="M4.70587 36.7759H15.4788" stroke="#0EA5E9" stroke-width="3.5" stroke-linecap="round" stroke-linejoin="round"/>
<path d="M37.0245 36.7759H47.7975" stroke="#0EA5E9" stroke-width="3.5" stroke-linecap="round" stroke-linejoin="round"/>
<path d="M37.0245 15.2242H47.7975" stroke="#0EA5E9" stroke-width="3.5" stroke-linecap="round" stroke-linejoin="round"/>
<path d="M70.534 2.8364C70.6046 2.8364 70.6611 2.86476 70.7034 2.92149C70.7599 2.96403 70.7881 3.02076 70.7881 3.09167V5.62312C70.7881 5.69403 70.7599 5.75785 70.7034 5.81458C70.6611 5.85712 70.6046 5.8784 70.534 5.8784H66.8281C66.7575 5.8784 66.7222 5.91385 66.7222 5.98476V17.472C66.7222 17.5429 66.694 17.6068 66.6375 17.6635C66.5952 17.706 66.5387 17.7273 66.4681 17.7273H63.4611C63.3905 17.7273 63.327 17.706 63.2705 17.6635C63.2281 17.6068 63.207 17.5429 63.207 17.472V5.98476C63.207 5.91385 63.1717 5.8784 63.1011 5.8784H59.5222C59.4517 5.8784 59.3881 5.85712 59.3317 5.81458C59.2893 5.75785 59.2681 5.69403 59.2681 5.62312V3.09167C59.2681 3.02076 59.2893 2.96403 59.3317 2.92149C59.3881 2.86476 59.4517 2.8364 59.5222 2.8364H70.534ZM79.9966 3.09167C79.9966 3.02076 80.0178 2.96403 80.0601 2.92149C80.1166 2.86476 80.1801 2.8364 80.2507 2.8364H83.2578C83.3284 2.8364 83.3848 2.86476 83.4272 2.92149C83.4837 2.96403 83.5119 3.02076 83.5119 3.09167V17.472C83.5119 17.5429 83.4837 17.6068 83.4272 17.6635C83.3848 17.706 83.3284 17.7273 83.2578 17.7273H80.2507C80.1801 17.7273 80.1166 17.706 80.0601 17.6635C80.0178 17.6068 79.9966 17.5429 79.9966 17.472V11.8135C79.9966 11.7426 79.9613 11.7071 79.8907 11.7071H75.9307C75.8601 11.7071 75.8248 11.7426 75.8248 11.8135V17.472C75.8248 17.5429 75.7966 17.6068 75.7401 17.6635C75.6978 17.706 75.6413 17.7273 75.5707 17.7273H72.5637C72.4931 17.7273 72.4295 17.706 72.3731 17.6635C72.3307 17.6068 72.3095 17.5429 72.3095 17.472V3.09167C72.3095 3.02076 72.3307 2.96403 72.3731 2.92149C72.4295 2.86476 72.4931 2.8364 72.5637 2.8364H75.5707C75.6413 2.8364 75.6978 2.86476 75.7401 2.92149C75.7966 2.96403 75.8248 3.02076 75.8248 3.09167V8.58003C75.8248 8.65094 75.8601 8.6864 75.9307 8.6864H79.8907C79.9613 8.6864 79.9966 8.65094 79.9966 8.58003V3.09167ZM95.9454 5.60185C95.9454 5.67276 95.9172 5.73658 95.8607 5.7933C95.8184 5.83585 95.7619 5.85712 95.6913 5.85712H89.0419C88.9713 5.85712 88.936 5.89258 88.936 5.96349V8.58003C88.936 8.65094 88.9713 8.6864 89.0419 8.6864H93.2984C93.3689 8.6864 93.4254 8.71476 93.4678 8.77149C93.5242 8.81403 93.5525 8.87076 93.5525 8.94167V11.4306C93.5525 11.5015 93.5242 11.5653 93.4678 11.622C93.4254 11.6646 93.3689 11.6858 93.2984 11.6858H89.0419C88.9713 11.6858 88.936 11.7213 88.936 11.7922V14.6002C88.936 14.6711 88.9713 14.7066 89.0419 14.7066H95.6913C95.7619 14.7066 95.8184 14.7349 95.8607 14.7917C95.9172 14.8342 95.9454 14.8909 95.9454 14.9619V17.472C95.9454 17.5429 95.9172 17.6068 95.8607 17.6635C95.8184 17.706 95.7619 17.7273 95.6913 17.7273H85.6748C85.6042 17.7273 85.5407 17.706 85.4842 17.6635C85.4419 17.6068 85.4207 17.5429 85.4207 17.472V3.09167C85.4207 3.02076 85.4419 2.96403 85.4842 2.92149C85.5407 2.86476 85.6042 2.8364 85.6748 2.8364H95.6913C95.7619 2.8364 95.8184 2.86476 95.8607 2.92149C95.9172 2.96403 95.9454 3.02076 95.9454 3.09167V5.60185ZM69.327 19.552C69.3834 19.4386 69.4822 19.3819 69.6234 19.3819H72.6093C72.6799 19.3819 72.7364 19.4102 72.7787 19.4669C72.8352 19.5095 72.8634 19.5662 72.8634 19.6371V34.0175C72.8634 34.0884 72.8352 34.1522 72.7787 34.2089C72.7364 34.2515 72.6799 34.2728 72.6093 34.2728H69.6022C69.5317 34.2728 69.4681 34.2515 69.4117 34.2089C69.3693 34.1522 69.3481 34.0884 69.3481 34.0175V25.4659C69.3481 25.4091 69.334 25.3808 69.3058 25.3808C69.2775 25.3808 69.2493 25.402 69.2211 25.4446L67.3999 28.3802C67.3434 28.4937 67.2446 28.5504 67.1034 28.5504H65.5999C65.4587 28.5504 65.3599 28.4937 65.3034 28.3802L63.4611 25.4233C63.4328 25.3808 63.4046 25.3595 63.3764 25.3595C63.3481 25.3595 63.334 25.3879 63.334 25.4446V34.0175C63.334 34.0884 63.3058 34.1522 63.2493 34.2089C63.2069 34.2515 63.1505 34.2728 63.0799 34.2728H60.0728C60.0022 34.2728 59.9387 34.2515 59.8822 34.2089C59.8399 34.1522 59.8187 34.0884 59.8187 34.0175V19.6371C59.8187 19.5662 59.8399 19.5095 59.8822 19.4669C59.9387 19.4102 60.0022 19.3819 60.0728 19.3819H63.0587C63.1858 19.3819 63.2846 19.4386 63.3552 19.552L66.2987 24.1895C66.3411 24.2746 66.3834 24.2746 66.4258 24.1895L69.327 19.552ZM80.463 34.5068C79.3194 34.5068 78.31 34.2799 77.4347 33.826C76.5735 33.358 75.9029 32.7057 75.4229 31.8689C74.9429 31.0322 74.7029 30.0608 74.7029 28.9546V24.7C74.7029 23.6222 74.9429 22.672 75.4229 21.8495C75.9029 21.0128 76.5735 20.3675 77.4347 19.9137C78.31 19.4457 79.3194 19.2117 80.463 19.2117C81.6065 19.2117 82.6159 19.4457 83.4912 19.9137C84.3665 20.3675 85.0441 21.0128 85.5241 21.8495C86.0041 22.672 86.2441 23.6222 86.2441 24.7V28.9546C86.2441 30.0608 86.0041 31.0322 85.5241 31.8689C85.0441 32.7057 84.3665 33.358 83.4912 33.826C82.6159 34.2799 81.6065 34.5068 80.463 34.5068ZM80.463 31.486C81.1406 31.486 81.6841 31.2662 82.0935 30.8266C82.5171 30.3869 82.7288 29.7984 82.7288 29.0609V24.6575C82.7288 23.9342 82.5171 23.3528 82.0935 22.9131C81.6841 22.4593 81.1406 22.2324 80.463 22.2324C79.7994 22.2324 79.2559 22.4593 78.8324 22.9131C78.423 23.3528 78.2182 23.9342 78.2182 24.6575V29.0609C78.2182 29.7984 78.423 30.3869 78.8324 30.8266C79.2559 31.2662 79.7994 31.486 80.463 31.486ZM91.7817 34.2728C91.6405 34.2728 91.5487 34.2019 91.5064 34.06L87.2287 19.6797L87.2075 19.5946C87.2075 19.4528 87.2852 19.3819 87.4405 19.3819H90.6805C90.8358 19.3819 90.9346 19.4528 90.977 19.5946L93.4122 29.2737C93.4264 29.3162 93.4475 29.3375 93.4758 29.3375C93.504 29.3375 93.5252 29.3162 93.5393 29.2737L95.9322 19.5946C95.9746 19.4528 96.0734 19.3819 96.2287 19.3819H99.4052C99.4899 19.3819 99.5534 19.4102 99.5958 19.4669C99.6381 19.5237 99.6452 19.5946 99.617 19.6797L95.2758 34.06C95.2334 34.2019 95.1417 34.2728 95.0005 34.2728H91.7817ZM101.412 34.2728C101.342 34.2728 101.278 34.2515 101.222 34.2089C101.18 34.1522 101.158 34.0884 101.158 34.0175V19.6371C101.158 19.5662 101.18 19.5095 101.222 19.4669C101.278 19.4102 101.342 19.3819 101.412 19.3819H104.42C104.49 19.3819 104.547 19.4102 104.589 19.4669C104.645 19.5095 104.674 19.5662 104.674 19.6371V34.0175C104.674 34.0884 104.645 34.1522 104.589 34.2089C104.547 34.2515 104.49 34.2728 104.42 34.2728H101.412ZM117.287 22.1473C117.287 22.2182 117.259 22.282 117.202 22.3388C117.16 22.3813 117.104 22.4026 117.033 22.4026H110.384C110.313 22.4026 110.278 22.438 110.278 22.5089V25.1255C110.278 25.1964 110.313 25.2319 110.384 25.2319H114.64C114.711 25.2319 114.767 25.2602 114.81 25.3169C114.866 25.3595 114.894 25.4162 114.894 25.4871V27.976C114.894 28.0469 114.866 28.1108 114.81 28.1675C114.767 28.21 114.711 28.2313 114.64 28.2313H110.384C110.313 28.2313 110.278 28.2668 110.278 28.3377V31.1457C110.278 31.2166 110.313 31.252 110.384 31.252H117.033C117.104 31.252 117.16 31.2804 117.202 31.3371C117.259 31.3797 117.287 31.4364 117.287 31.5073V34.0175C117.287 34.0884 117.259 34.1522 117.202 34.2089C117.16 34.2515 117.104 34.2728 117.033 34.2728H107.017C106.946 34.2728 106.883 34.2515 106.826 34.2089C106.784 34.1522 106.763 34.0884 106.763 34.0175V19.6371C106.763 19.5662 106.784 19.5095 106.826 19.4669C106.883 19.4102 106.946 19.3819 107.017 19.3819H117.033C117.104 19.3819 117.16 19.4102 117.202 19.4669C117.259 19.5095 117.287 19.5662 117.287 19.6371V22.1473ZM69.0728 43.0749C68.9881 43.1175 68.9881 43.16 69.0728 43.2026C70.3575 43.8833 70.9999 45.0179 70.9999 46.6062C70.9999 48.0244 70.5128 49.0809 69.5387 49.7759C68.5646 50.4708 67.287 50.8182 65.7058 50.8182H60.0728C60.0022 50.8182 59.9387 50.7969 59.8822 50.7544C59.8399 50.6977 59.8187 50.6339 59.8187 50.5629V36.1826C59.8187 36.1117 59.8399 36.0549 59.8822 36.0124C59.9387 35.9557 60.0022 35.9273 60.0728 35.9273H65.5364C67.2587 35.9273 68.5575 36.2535 69.4328 36.9059C70.3222 37.5582 70.7669 38.6148 70.7669 40.0755C70.7669 41.4653 70.2022 42.4651 69.0728 43.0749ZM63.4399 38.948C63.3693 38.948 63.334 38.9835 63.334 39.0544V41.7348C63.334 41.8057 63.3693 41.8411 63.4399 41.8411H65.5364C66.1152 41.8411 66.5599 41.7206 66.8705 41.4795C67.1811 41.2242 67.3364 40.8697 67.3364 40.4159C67.3364 39.9479 67.1811 39.5862 66.8705 39.3309C66.5599 39.0757 66.1152 38.948 65.5364 38.948H63.4399ZM65.7058 47.7762C66.2705 47.7762 66.7081 47.6486 67.0187 47.3933C67.3293 47.1239 67.4846 46.7409 67.4846 46.2446C67.4846 45.7624 67.3293 45.3937 67.0187 45.1384C66.7222 44.8689 66.2846 44.7342 65.7058 44.7342H63.4399C63.3693 44.7342 63.334 44.7697 63.334 44.8406V47.6698C63.334 47.7408 63.3693 47.7762 63.4399 47.7762H65.7058ZM81.6564 50.8182C81.5011 50.8182 81.4022 50.7473 81.3599 50.6055L80.8093 48.7122C80.7811 48.6555 80.7458 48.6271 80.7034 48.6271H75.8752C75.8328 48.6271 75.7975 48.6555 75.7693 48.7122L75.2187 50.6055C75.1764 50.7473 75.0775 50.8182 74.9222 50.8182H71.6822C71.5975 50.8182 71.534 50.7969 71.4917 50.7544C71.4493 50.6977 71.4422 50.6197 71.4705 50.5204L76.0022 36.14C76.0446 35.9982 76.1364 35.9273 76.2775 35.9273H80.2799C80.4211 35.9273 80.5128 35.9982 80.5552 36.14L85.1081 50.5204C85.1222 50.5488 85.1293 50.5842 85.1293 50.6268C85.1293 50.7544 85.0517 50.8182 84.8964 50.8182H81.6564ZM76.6164 45.7766C76.6022 45.8617 76.6305 45.9042 76.7011 45.9042H79.8564C79.9411 45.9042 79.9693 45.8617 79.9411 45.7766L78.3317 40.3095C78.3175 40.2528 78.2964 40.2315 78.2681 40.2457C78.2399 40.2457 78.2187 40.2669 78.2046 40.3095L76.6164 45.7766ZM91.0685 50.9884C89.8967 50.9884 88.8732 50.804 87.9979 50.4353C87.1367 50.0524 86.4661 49.5135 85.9861 48.8186C85.5202 48.1095 85.2873 47.294 85.2873 46.3722V45.968C85.2873 45.8971 85.3085 45.8404 85.3508 45.7978C85.4073 45.7411 85.4708 45.7128 85.5414 45.7128H88.4849C88.5555 45.7128 88.612 45.7411 88.6544 45.7978C88.7108 45.8404 88.7391 45.8971 88.7391 45.968V46.2233C88.7391 46.6913 88.972 47.1026 89.4379 47.4571C89.9038 47.7975 90.532 47.9677 91.3226 47.9677C91.9438 47.9677 92.4026 47.8329 92.6991 47.5635C92.9955 47.294 93.1438 46.982 93.1438 46.6275C93.1438 46.3438 93.052 46.1169 92.8685 45.9468C92.6991 45.7624 92.4661 45.6135 92.1697 45.5C91.8732 45.3724 91.4144 45.2022 90.7932 44.9895C90.7085 44.9469 90.6238 44.9186 90.5391 44.9044C90.4544 44.876 90.3767 44.8477 90.3061 44.8193C89.3885 44.5215 88.5908 44.2024 87.9132 43.862C87.2355 43.5075 86.6567 43.0253 86.1767 42.4155C85.6967 41.7915 85.4567 41.0257 85.4567 40.118C85.4567 39.2388 85.6826 38.4729 86.1344 37.8206C86.6002 37.154 87.2426 36.6435 88.0614 36.2889C88.8802 35.9344 89.805 35.7571 90.8355 35.7571C91.9226 35.7571 92.8967 35.9557 93.7579 36.3528C94.6332 36.7499 95.3179 37.31 95.812 38.0333C96.3061 38.7566 96.5532 39.5862 96.5532 40.5222V40.82C96.5532 40.8909 96.525 40.9548 96.4685 41.0115C96.4261 41.054 96.3697 41.0753 96.2991 41.0753H93.3555C93.2849 41.0753 93.2214 41.054 93.165 41.0115C93.1226 40.9548 93.1014 40.8909 93.1014 40.82V40.6711C93.1014 40.1748 92.8826 39.7351 92.445 39.3522C92.0073 38.9693 91.4214 38.7779 90.6873 38.7779C90.1367 38.7779 89.7061 38.8913 89.3955 39.1182C89.085 39.3451 88.9297 39.6642 88.9297 40.0755C88.9297 40.3875 89.0285 40.6499 89.2261 40.8626C89.4238 41.0611 89.7273 41.2526 90.1367 41.4369C90.5602 41.6071 91.2026 41.834 92.0638 42.1177C93.052 42.458 93.8214 42.7559 94.372 43.0111C94.9226 43.2664 95.4379 43.6848 95.9179 44.2662C96.412 44.8335 96.6591 45.5851 96.6591 46.5211C96.6591 47.4429 96.4261 48.2371 95.9602 48.9037C95.4944 49.5702 94.8379 50.0879 93.9908 50.4566C93.1579 50.8111 92.1838 50.9884 91.0685 50.9884ZM108.891 38.6928C108.891 38.7637 108.863 38.8275 108.807 38.8842C108.764 38.9268 108.708 38.948 108.637 38.948H101.988C101.917 38.948 101.882 38.9835 101.882 39.0544V41.6709C101.882 41.7418 101.917 41.7773 101.988 41.7773H106.244C106.315 41.7773 106.371 41.8057 106.414 41.8624C106.47 41.9049 106.498 41.9617 106.498 42.0326V44.5215C106.498 44.5924 106.47 44.6562 106.414 44.7129C106.371 44.7555 106.315 44.7768 106.244 44.7768H101.988C101.917 44.7768 101.882 44.8122 101.882 44.8831V47.6911C101.882 47.762 101.917 47.7975 101.988 47.7975H108.637C108.708 47.7975 108.764 47.8258 108.807 47.8826C108.863 47.9251 108.891 47.9819 108.891 48.0528V50.5629C108.891 50.6339 108.863 50.6977 108.807 50.7544C108.764 50.7969 108.708 50.8182 108.637 50.8182H98.6207C98.5501 50.8182 98.4866 50.7969 98.4301 50.7544C98.3878 50.6977 98.3666 50.6339 98.3666 50.5629V36.1826C98.3666 36.1117 98.3878 36.0549 98.4301 36.0124C98.4866 35.9557 98.5501 35.9273 98.6207 35.9273H108.637C108.708 35.9273 108.764 35.9557 108.807 36.0124C108.863 36.0549 108.891 36.1117 108.891 36.1826V38.6928Z" fill="#0F172A"/>
</svg>
